<?xml version="1.0" encoding="utf-8"?>
<svg version="1.1" xmlns:xlink="http://www.w3.org/1999/xlink" width="59px" height="38px" xmlns="http://www.w3.org/2000/svg">
  <g transform="matrix(1 0 0 1 -218 -365 )">
    <path d="M 218 365  L 277 365  L 277 403  L 218 403  L 218 365  " fill-rule="nonzero" fill="#cccccc" stroke="none" />
    <path d="M 221 368  L 274 368  L 274 400  L 221 400  L 221 368  " fill-rule="nonzero" fill="#ffffff" stroke="none" />
    <path d="M 251.53 376.4  C 249.934 376.4  248.68 375.146  248.68 373.55  C 248.68 371.954  249.934 370.7  251.53 370.7  C 253.126 370.7  254.38 371.954  254.38 373.55  C 254.38 375.146  253.126 376.4  251.53 376.4  " fill-rule="nonzero" fill="#cccccc" stroke="none" />
    <path d="M 222 399  L 222 382.5  L 234.75 375  L 252.6 387.406779661017  L 262.8 379.5  L 273 387.406779661017  L 273 399  L 222 399  " fill-rule="nonzero" fill="#169bd5" stroke="none" />
  </g>
</svg>