<?xml version="1.0" encoding="utf-8"?>
<svg version="1.1" xmlns:xlink="http://www.w3.org/1999/xlink" width="61px" height="20px" xmlns="http://www.w3.org/2000/svg">
  <defs>
    <mask fill="white" id="clip8">
      <path d="M 0 16  L 0 4  C 0 1.75999999999999  2.1645161290323 0  4.91935483870968 0  L 31.4838709677419 0  L 56.0806451612903 0  C 58.8354838709677 0  61 1.75999999999999  61 4  L 61 16  C 61 18.24  58.8354838709677 20  56.0806451612903 20  L 4.91935483870968 20  C 2.1645161290323 20  0 18.24  0 16  Z " fill-rule="evenodd" />
    </mask>
  </defs>
  <g transform="matrix(1 0 0 1 -1175 -213 )">
    <path d="M 0 16  L 0 4  C 0 1.75999999999999  2.1645161290323 0  4.91935483870968 0  L 31.4838709677419 0  L 56.0806451612903 0  C 58.8354838709677 0  61 1.75999999999999  61 4  L 61 16  C 61 18.24  58.8354838709677 20  56.0806451612903 20  L 4.91935483870968 20  C 2.1645161290323 20  0 18.24  0 16  Z " fill-rule="nonzero" fill="#f2f2f2" stroke="none" transform="matrix(1 0 0 1 1175 213 )" />
    <path d="M 0 16  L 0 4  C 0 1.75999999999999  2.1645161290323 0  4.91935483870968 0  L 31.4838709677419 0  L 56.0806451612903 0  C 58.8354838709677 0  61 1.75999999999999  61 4  L 61 16  C 61 18.24  58.8354838709677 20  56.0806451612903 20  L 4.91935483870968 20  C 2.1645161290323 20  0 18.24  0 16  Z " stroke-width="2" stroke="#ffffff" fill="none" transform="matrix(1 0 0 1 1175 213 )" mask="url(#clip8)" />
  </g>
</svg>