<?xml version="1.0" encoding="utf-8"?>
<svg version="1.1" xmlns:xlink="http://www.w3.org/1999/xlink" width="69px" height="20px" xmlns="http://www.w3.org/2000/svg">
  <defs>
    <mask fill="white" id="clip10">
      <path d="M 0 16  L 0 4  C 0 1.75999999999999  2.44838709677424 0  5.56451612903243 0  L 27.9285714285713 0  L 33 0  L 35.6129032258066 0  L 63.4354838709676 0  C 66.5516129032258 0  69 1.75999999999999  69 4  L 69 16  C 69 18.24  66.5516129032258 20  63.4354838709676 20  L 5.56451612903243 20  C 2.44838709677424 20  0 18.24  0 16  Z " fill-rule="evenodd" />
    </mask>
  </defs>
  <g transform="matrix(1 0 0 1 -1106 -361 )">
    <path d="M 0 16  L 0 4  C 0 1.75999999999999  2.44838709677424 0  5.56451612903243 0  L 27.9285714285713 0  L 33 0  L 35.6129032258066 0  L 63.4354838709676 0  C 66.5516129032258 0  69 1.75999999999999  69 4  L 69 16  C 69 18.24  66.5516129032258 20  63.4354838709676 20  L 5.56451612903243 20  C 2.44838709677424 20  0 18.24  0 16  Z " fill-rule="nonzero" fill="#f2f2f2" stroke="none" transform="matrix(1 0 0 1 1106 361 )" />
    <path d="M 0 16  L 0 4  C 0 1.75999999999999  2.44838709677424 0  5.56451612903243 0  L 27.9285714285713 0  L 33 0  L 35.6129032258066 0  L 63.4354838709676 0  C 66.5516129032258 0  69 1.75999999999999  69 4  L 69 16  C 69 18.24  66.5516129032258 20  63.4354838709676 20  L 5.56451612903243 20  C 2.44838709677424 20  0 18.24  0 16  Z " stroke-width="2" stroke="#ffffff" fill="none" transform="matrix(1 0 0 1 1106 361 )" mask="url(#clip10)" />
  </g>
</svg>