<?xml version="1.0" encoding="utf-8"?>
<svg version="1.1" xmlns:xlink="http://www.w3.org/1999/xlink" width="758px" height="341px" xmlns="http://www.w3.org/2000/svg">
  <g transform="matrix(1 0 0 1 -364 -293 )">
    <path d="M 364 293  L 1122 293  L 1122 634  L 364 634  L 364 293  " fill-rule="nonzero" fill="#cccccc" stroke="none" />
    <path d="M 388 317  L 1098 317  L 1098 610  L 388 610  L 388 317  " fill-rule="nonzero" fill="#ffffff" stroke="none" />
    <path d="M 783.735 395.3  C 769.413 395.3  758.16 384.047  758.16 369.725  C 758.16 355.403  769.413 344.15  783.735 344.15  C 798.057 344.15  809.31 355.403  809.31 369.725  C 809.31 384.047  798.057 395.3  783.735 395.3  " fill-rule="nonzero" fill="#cccccc" stroke="none" />
    <path d="M 397 602  L 397 450.2  L 570.25 381.2  L 812.8 527.501846965699  L 951.4 422.6  L 1090 527.501846965699  L 1090 602  L 397 602  " fill-rule="nonzero" fill="#169bd5" stroke="none" />
  </g>
</svg>