<?xml version="1.0" encoding="utf-8"?>
<svg version="1.1" xmlns:xlink="http://www.w3.org/1999/xlink" width="47px" height="40px" xmlns="http://www.w3.org/2000/svg">
  <g transform="matrix(1 0 0 1 -1083 -360 )">
    <path d="M 1083 360  L 1130 360  L 1130 400  L 1083 400  L 1083 360  " fill-rule="nonzero" fill="#cccccc" stroke="none" />
    <path d="M 1086 363  L 1127 363  L 1127 397  L 1086 397  L 1086 363  " fill-rule="nonzero" fill="#ffffff" stroke="none" />
    <path d="M 1110.44 372  C 1108.76 372  1107.44 370.68  1107.44 369  C 1107.44 367.32  1108.76 366  1110.44 366  C 1112.12 366  1113.44 367.32  1113.44 369  C 1113.44 370.68  1112.12 372  1110.44 372  " fill-rule="nonzero" fill="#cccccc" stroke="none" />
    <path d="M 1087 396  L 1087 378.4  L 1096.75 370.4  L 1110.4 379.659574468085  L 1118.2 375.2  L 1126 379.659574468085  L 1126 396  L 1087 396  " fill-rule="nonzero" fill="#169bd5" stroke="none" />
  </g>
</svg>