<?xml version="1.0" encoding="utf-8"?>
<svg version="1.1" xmlns:xlink="http://www.w3.org/1999/xlink" width="142px" height="134px" xmlns="http://www.w3.org/2000/svg">
  <g transform="matrix(1 0 0 1 -461 -718 )">
    <path d="M 461 718  L 603 718  L 603 852  L 461 852  L 461 718  " fill-rule="nonzero" fill="#cccccc" stroke="none" />
    <path d="M 470 727  L 594 727  L 594 843  L 470 843  L 470 727  " fill-rule="nonzero" fill="#ffffff" stroke="none" />
    <path d="M 544.89 758.2  C 539.262 758.2  534.84 753.778  534.84 748.15  C 534.84 742.522  539.262 738.1  544.89 738.1  C 550.518 738.1  554.94 742.522  554.94 748.15  C 554.94 753.778  550.518 758.2  544.89 758.2  " fill-rule="nonzero" fill="#cccccc" stroke="none" />
    <path d="M 474 840  L 474 780.05  L 503.25 752.8  L 544.2 778.284507042253  L 567.6 769.15  L 591 778.284507042253  L 591 840  L 474 840  " fill-rule="nonzero" fill="#169bd5" stroke="none" />
  </g>
</svg>