<?xml version="1.0" encoding="utf-8"?>
<svg version="1.1" xmlns:xlink="http://www.w3.org/1999/xlink" width="40px" height="40px" xmlns="http://www.w3.org/2000/svg">
  <g transform="matrix(1 0 0 1 -428 -470 )">
    <path d="M 428 470  L 468 470  L 468 510  L 428 510  L 428 470  " fill-rule="nonzero" fill="#cccccc" stroke="none" />
    <path d="M 431 473  L 465 473  L 465 507  L 431 507  L 431 473  " fill-rule="nonzero" fill="#ffffff" stroke="none" />
    <path d="M 451.8 482  C 450.12 482  448.8 480.68  448.8 479  C 448.8 477.32  450.12 476  451.8 476  C 453.48 476  454.8 477.32  454.8 479  C 454.8 480.68  453.48 482  451.8 482  " fill-rule="nonzero" fill="#cccccc" stroke="none" />
    <path d="M 432 506  L 432 488.4  L 440 480.4  L 451.2 486.8  L 457.6 485.2  L 464 486.8  L 464 506  L 432 506  " fill-rule="nonzero" fill="#169bd5" stroke="none" />
  </g>
</svg>