<?xml version="1.0" encoding="utf-8"?>
<svg version="1.1" xmlns:xlink="http://www.w3.org/1999/xlink" width="73px" height="20px" xmlns="http://www.w3.org/2000/svg">
  <defs>
    <mask fill="white" id="clip11">
      <path d="M 0 16  L 0 4  C 0 1.75999999999999  2.59032258064522 0  5.88709677419355 0  L 37.6774193548387 0  L 67.1129032258064 0  C 70.4096774193548 0  73 1.75999999999999  73 4  L 73 16  C 73 18.24  70.4096774193548 20  67.1129032258064 20  L 5.88709677419355 20  C 2.59032258064522 20  0 18.24  0 16  Z " fill-rule="evenodd" />
    </mask>
  </defs>
  <g transform="matrix(1 0 0 1 -1398 -149 )">
    <path d="M 0 16  L 0 4  C 0 1.75999999999999  2.59032258064522 0  5.88709677419355 0  L 37.6774193548387 0  L 67.1129032258064 0  C 70.4096774193548 0  73 1.75999999999999  73 4  L 73 16  C 73 18.24  70.4096774193548 20  67.1129032258064 20  L 5.88709677419355 20  C 2.59032258064522 20  0 18.24  0 16  Z " fill-rule="nonzero" fill="#f2f2f2" stroke="none" transform="matrix(1 0 0 1 1398 149 )" />
    <path d="M 0 16  L 0 4  C 0 1.75999999999999  2.59032258064522 0  5.88709677419355 0  L 37.6774193548387 0  L 67.1129032258064 0  C 70.4096774193548 0  73 1.75999999999999  73 4  L 73 16  C 73 18.24  70.4096774193548 20  67.1129032258064 20  L 5.88709677419355 20  C 2.59032258064522 20  0 18.24  0 16  Z " stroke-width="2" stroke="#ffffff" fill="none" transform="matrix(1 0 0 1 1398 149 )" mask="url(#clip11)" />
  </g>
</svg>