<?xml version="1.0" encoding="utf-8"?>
<svg version="1.1" xmlns:xlink="http://www.w3.org/1999/xlink" width="85px" height="20px" xmlns="http://www.w3.org/2000/svg">
  <defs>
    <mask fill="white" id="clip12">
      <path d="M 0 16  L 0 4  C 0 1.75999999999999  3.01612903225813 0  6.85483870967742 0  L 43.8709677419355 0  L 78.1451612903226 0  C 81.9838709677419 0  85 1.75999999999999  85 4  L 85 16  C 85 18.24  81.9838709677419 20  78.1451612903226 20  L 6.85483870967742 20  C 3.01612903225813 20  0 18.24  0 16  Z " fill-rule="evenodd" />
    </mask>
  </defs>
  <g transform="matrix(1 0 0 1 -1305 -149 )">
    <path d="M 0 16  L 0 4  C 0 1.75999999999999  3.01612903225813 0  6.85483870967742 0  L 43.8709677419355 0  L 78.1451612903226 0  C 81.9838709677419 0  85 1.75999999999999  85 4  L 85 16  C 85 18.24  81.9838709677419 20  78.1451612903226 20  L 6.85483870967742 20  C 3.01612903225813 20  0 18.24  0 16  Z " fill-rule="nonzero" fill="#f2f2f2" stroke="none" transform="matrix(1 0 0 1 1305 149 )" />
    <path d="M 0 16  L 0 4  C 0 1.75999999999999  3.01612903225813 0  6.85483870967742 0  L 43.8709677419355 0  L 78.1451612903226 0  C 81.9838709677419 0  85 1.75999999999999  85 4  L 85 16  C 85 18.24  81.9838709677419 20  78.1451612903226 20  L 6.85483870967742 20  C 3.01612903225813 20  0 18.24  0 16  Z " stroke-width="2" stroke="#ffffff" fill="none" transform="matrix(1 0 0 1 1305 149 )" mask="url(#clip12)" />
  </g>
</svg>