<?xml version="1.0" encoding="utf-8"?>
<svg version="1.1" xmlns:xlink="http://www.w3.org/1999/xlink" width="258px" height="148px" xmlns="http://www.w3.org/2000/svg">
  <g transform="matrix(1 0 0 1 -129 -197 )">
    <path d="M 129 197  L 387 197  L 387 345  L 129 345  L 129 197  " fill-rule="nonzero" fill="#cccccc" stroke="none" />
    <path d="M 139 207  L 377 207  L 377 335  L 139 335  L 139 207  " fill-rule="nonzero" fill="#ffffff" stroke="none" />
    <path d="M 274.26 241.4  C 268.044 241.4  263.16 236.516  263.16 230.3  C 263.16 224.084  268.044 219.2  274.26 219.2  C 280.476 219.2  285.36 224.084  285.36 230.3  C 285.36 236.516  280.476 241.4  274.26 241.4  " fill-rule="nonzero" fill="#cccccc" stroke="none" />
    <path d="M 143 332  L 143 265.45  L 200.75 235.2  L 281.6 290.353488372093  L 327.8 253.35  L 374 290.353488372093  L 374 332  L 143 332  " fill-rule="nonzero" fill="#169bd5" stroke="none" />
  </g>
</svg>