<?xml version="1.0" encoding="utf-8"?>
<svg version="1.1" xmlns:xlink="http://www.w3.org/1999/xlink" width="460px" height="299px" xmlns="http://www.w3.org/2000/svg">
  <g transform="matrix(1 0 0 1 -241 -208 )">
    <path d="M 241 208  L 701 208  L 701 507  L 241 507  L 241 208  " fill-rule="nonzero" fill="#cccccc" stroke="none" />
    <path d="M 262 229  L 680 229  L 680 486  L 262 486  L 262 229  " fill-rule="nonzero" fill="#ffffff" stroke="none" />
    <path d="M 502.625 297.7  C 490.067 297.7  480.2 287.833  480.2 275.275  C 480.2 262.717  490.067 252.85  502.625 252.85  C 515.183 252.85  525.05 262.717  525.05 275.275  C 525.05 287.833  515.183 297.7  502.625 297.7  " fill-rule="nonzero" fill="#cccccc" stroke="none" />
    <path d="M 270 479  L 270 345.9  L 370.75 285.4  L 511.8 384.62  L 592.4 321.7  L 673 384.62  L 673 479  L 270 479  " fill-rule="nonzero" fill="#169bd5" stroke="none" />
  </g>
</svg>