<?xml version="1.0" encoding="utf-8"?>
<svg version="1.1" xmlns:xlink="http://www.w3.org/1999/xlink" width="12px" height="12px" viewBox="667 580.5  12 12" xmlns="http://www.w3.org/2000/svg">
  <path d="M 673 581.5  C 675.8 581.5  678 583.7  678 586.5  C 678 589.3  675.8 591.5  673 591.5  C 670.2 591.5  668 589.3  668 586.5  C 668 583.7  670.2 581.5  673 581.5  Z " fill-rule="nonzero" fill="#ffffff" stroke="none" />
  <path d="M 673 581.5  C 675.8 581.5  678 583.7  678 586.5  C 678 589.3  675.8 591.5  673 591.5  C 670.2 591.5  668 589.3  668 586.5  C 668 583.7  670.2 581.5  673 581.5  Z " stroke-width="2" stroke="#797979" fill="none" />
  <path d="M 673 589.5  C 671.32 589.5  670 588.18  670 586.5  C 670 584.82  671.32 583.5  673 583.5  C 674.68 583.5  676 584.82  676 586.5  C 676 588.18  674.68 589.5  673 589.5  " fill-rule="nonzero" fill="#797979" stroke="none" />
</svg>