<?xml version="1.0" encoding="utf-8"?>
<svg version="1.1" xmlns:xlink="http://www.w3.org/1999/xlink" width="242px" height="170px" xmlns="http://www.w3.org/2000/svg">
  <g transform="matrix(1 0 0 1 -439 -389 )">
    <path d="M 439 389  L 681 389  L 681 559  L 439 559  L 439 389  " fill-rule="nonzero" fill="#cccccc" stroke="none" />
    <path d="M 451 401  L 669 401  L 669 547  L 451 547  L 451 401  " fill-rule="nonzero" fill="#ffffff" stroke="none" />
    <path d="M 577.59 440  C 570.45 440  564.84 434.39  564.84 427.25  C 564.84 420.11  570.45 414.5  577.59 414.5  C 584.73 414.5  590.34 420.11  590.34 427.25  C 590.34 434.39  584.73 440  577.59 440  " fill-rule="nonzero" fill="#cccccc" stroke="none" />
    <path d="M 456 543  L 456 467.65  L 508.25 433.4  L 581.4 485.256198347107  L 623.2 453.95  L 665 485.256198347107  L 665 543  L 456 543  " fill-rule="nonzero" fill="#169bd5" stroke="none" />
  </g>
</svg>