<?xml version="1.0" encoding="utf-8"?>
<svg version="1.1" xmlns:xlink="http://www.w3.org/1999/xlink" width="42px" height="20px" xmlns="http://www.w3.org/2000/svg">
  <defs>
    <mask fill="white" id="clip7">
      <path d="M 0 16  L 0 4  C 0 1.75999999999999  1.49032258064519 0  3.38709677419355 0  L 21.6774193548387 0  L 38.6129032258064 0  C 40.5096774193548 0  42 1.75999999999999  42 4  L 42 16  C 42 18.24  40.5096774193548 20  38.6129032258064 20  L 3.38709677419355 20  C 1.49032258064519 20  0 18.24  0 16  Z " fill-rule="evenodd" />
    </mask>
  </defs>
  <g transform="matrix(1 0 0 1 -1175 -213 )">
    <path d="M 0 16  L 0 4  C 0 1.75999999999999  1.49032258064519 0  3.38709677419355 0  L 21.6774193548387 0  L 38.6129032258064 0  C 40.5096774193548 0  42 1.75999999999999  42 4  L 42 16  C 42 18.24  40.5096774193548 20  38.6129032258064 20  L 3.38709677419355 20  C 1.49032258064519 20  0 18.24  0 16  Z " fill-rule="nonzero" fill="#f2f2f2" stroke="none" transform="matrix(1 0 0 1 1175 213 )" />
    <path d="M 0 16  L 0 4  C 0 1.75999999999999  1.49032258064519 0  3.38709677419355 0  L 21.6774193548387 0  L 38.6129032258064 0  C 40.5096774193548 0  42 1.75999999999999  42 4  L 42 16  C 42 18.24  40.5096774193548 20  38.6129032258064 20  L 3.38709677419355 20  C 1.49032258064519 20  0 18.24  0 16  Z " stroke-width="2" stroke="#ffffff" fill="none" transform="matrix(1 0 0 1 1175 213 )" mask="url(#clip7)" />
  </g>
</svg>