<?xml version="1.0" encoding="utf-8"?>
<svg version="1.1" xmlns:xlink="http://www.w3.org/1999/xlink" width="68px" height="20px" xmlns="http://www.w3.org/2000/svg">
  <defs>
    <mask fill="white" id="clip13">
      <path d="M 0 16  L 0 4  C 0 1.75999999999999  2.4129032258065 0  5.48387096774194 0  L 35.0967741935484 0  L 62.5161290322581 0  C 65.5870967741935 0  68 1.75999999999999  68 4  L 68 16  C 68 18.24  65.5870967741935 20  62.5161290322581 20  L 5.48387096774194 20  C 2.4129032258065 20  0 18.24  0 16  Z " fill-rule="evenodd" />
    </mask>
  </defs>
  <g transform="matrix(1 0 0 1 -1391 -148 )">
    <path d="M 0 16  L 0 4  C 0 1.75999999999999  2.4129032258065 0  5.48387096774194 0  L 35.0967741935484 0  L 62.5161290322581 0  C 65.5870967741935 0  68 1.75999999999999  68 4  L 68 16  C 68 18.24  65.5870967741935 20  62.5161290322581 20  L 5.48387096774194 20  C 2.4129032258065 20  0 18.24  0 16  Z " fill-rule="nonzero" fill="#f2f2f2" stroke="none" transform="matrix(1 0 0 1 1391 148 )" />
    <path d="M 0 16  L 0 4  C 0 1.75999999999999  2.4129032258065 0  5.48387096774194 0  L 35.0967741935484 0  L 62.5161290322581 0  C 65.5870967741935 0  68 1.75999999999999  68 4  L 68 16  C 68 18.24  65.5870967741935 20  62.5161290322581 20  L 5.48387096774194 20  C 2.4129032258065 20  0 18.24  0 16  Z " stroke-width="2" stroke="#ffffff" fill="none" transform="matrix(1 0 0 1 1391 148 )" mask="url(#clip13)" />
  </g>
</svg>