<?xml version="1.0" encoding="utf-8"?>
<svg version="1.1" xmlns:xlink="http://www.w3.org/1999/xlink" width="79px" height="77px" xmlns="http://www.w3.org/2000/svg">
  <g transform="matrix(1 0 0 1 -435 -247 )">
    <path d="M 435 247  L 514 247  L 514 324  L 435 324  L 435 247  " fill-rule="nonzero" fill="#cccccc" stroke="none" />
    <path d="M 440 252  L 509 252  L 509 319  L 440 319  L 440 252  " fill-rule="nonzero" fill="#ffffff" stroke="none" />
    <path d="M 481.855 270.1  C 478.621 270.1  476.08 267.559  476.08 264.325  C 476.08 261.091  478.621 258.55  481.855 258.55  C 485.089 258.55  487.63 261.091  487.63 264.325  C 487.63 267.559  485.089 270.1  481.855 270.1  " fill-rule="nonzero" fill="#cccccc" stroke="none" />
    <path d="M 442 317  L 442 282.35  L 458.25 266.6  L 481 280.156962025316  L 494 276.05  L 507 280.156962025316  L 507 317  L 442 317  " fill-rule="nonzero" fill="#169bd5" stroke="none" />
  </g>
</svg>