<?xml version="1.0" encoding="utf-8"?>
<svg version="1.1" xmlns:xlink="http://www.w3.org/1999/xlink" width="61px" height="61px" xmlns="http://www.w3.org/2000/svg">
  <g transform="matrix(1 0 0 1 -467 -535 )">
    <path d="M 467 535  L 528 535  L 528 596  L 467 596  L 467 535  " fill-rule="nonzero" fill="#cccccc" stroke="none" />
    <path d="M 471 539  L 524 539  L 524 592  L 471 592  L 471 539  " fill-rule="nonzero" fill="#ffffff" stroke="none" />
    <path d="M 503.295 553.3  C 500.733 553.3  498.72 551.287  498.72 548.725  C 498.72 546.163  500.733 544.15  503.295 544.15  C 505.857 544.15  507.87 546.163  507.87 548.725  C 507.87 551.287  505.857 553.3  503.295 553.3  " fill-rule="nonzero" fill="#cccccc" stroke="none" />
    <path d="M 473 591  L 473 563.5  L 485.5 551  L 503 561  L 513 558.5  L 523 561  L 523 591  L 473 591  " fill-rule="nonzero" fill="#169bd5" stroke="none" />
  </g>
</svg>