<?xml version="1.0" encoding="utf-8"?>
<svg version="1.1" xmlns:xlink="http://www.w3.org/1999/xlink" width="70px" height="69px" xmlns="http://www.w3.org/2000/svg">
  <g transform="matrix(1 0 0 1 -14 -107 )">
    <path d="M 14 107  L 84 107  L 84 176  L 14 176  L 14 107  " fill-rule="nonzero" fill="#cccccc" stroke="none" />
    <path d="M 19 112  L 79 112  L 79 171  L 19 171  L 19 112  " fill-rule="nonzero" fill="#ffffff" stroke="none" />
    <path d="M 55.575 127.7  C 52.677 127.7  50.4 125.423  50.4 122.525  C 50.4 119.627  52.677 117.35  55.575 117.35  C 58.473 117.35  60.75 119.627  60.75 122.525  C 60.75 125.423  58.473 127.7  55.575 127.7  " fill-rule="nonzero" fill="#cccccc" stroke="none" />
    <path d="M 21 170  L 21 139.2  L 35.25 125.2  L 55.2 136.88  L 66.6 133.6  L 78 136.88  L 78 170  L 21 170  " fill-rule="nonzero" fill="#169bd5" stroke="none" />
  </g>
</svg>