<?xml version="1.0" encoding="utf-8"?>
<svg version="1.1" xmlns:xlink="http://www.w3.org/1999/xlink" width="1301px" height="700px" xmlns="http://www.w3.org/2000/svg">
  <g transform="matrix(1 0 0 1 -46 -49 )">
    <path d="M 46 49  L 1347 49  L 1347 749  L 46 749  L 46 49  " fill-rule="nonzero" fill="#cccccc" stroke="none" />
    <path d="M 95 98  L 1298 98  L 1298 700  L 95 700  L 95 98  " fill-rule="nonzero" fill="#ffffff" stroke="none" />
    <path d="M 775.02 259  C 745.62 259  722.52 235.9  722.52 206.5  C 722.52 177.1  745.62 154  775.02 154  C 804.42 154  827.52 177.1  827.52 206.5  C 827.52 235.9  804.42 259  775.02 259  " fill-rule="nonzero" fill="#cccccc" stroke="none" />
    <path d="M 113 683  L 113 371.15  L 405 229.4  L 813.8 499.95618754804  L 1047.4 314.45  L 1281 499.95618754804  L 1281 683  L 113 683  " fill-rule="nonzero" fill="#169bd5" stroke="none" />
  </g>
</svg>