<?xml version="1.0" encoding="utf-8"?>
<svg version="1.1" xmlns:xlink="http://www.w3.org/1999/xlink" width="327px" height="303px" xmlns="http://www.w3.org/2000/svg">
  <g transform="matrix(1 0 0 1 -216 -370 )">
    <path d="M 216 370  L 543 370  L 543 673  L 216 673  L 216 370  " fill-rule="nonzero" fill="#cccccc" stroke="none" />
    <path d="M 237 391  L 522 391  L 522 652  L 237 652  L 237 391  " fill-rule="nonzero" fill="#ffffff" stroke="none" />
    <path d="M 408.765 460.9  C 396.039 460.9  386.04 450.901  386.04 438.175  C 386.04 425.449  396.039 415.45  408.765 415.45  C 421.491 415.45  431.49 425.449  431.49 438.175  C 431.49 450.901  421.491 460.9  408.765 460.9  " fill-rule="nonzero" fill="#cccccc" stroke="none" />
    <path d="M 245 645  L 245 509.7  L 312.5 448.2  L 407 508.233027522936  L 461 485.1  L 515 508.233027522936  L 515 645  L 245 645  " fill-rule="nonzero" fill="#169bd5" stroke="none" />
  </g>
</svg>